# Blender v2.74 (sub 0) OBJ File: 'table.blend'
# www.blender.org
o Circle.001
v 18.750324 75.554115 -24.037794
v 12.432261 75.554115 -23.415518
v 6.356997 75.554115 -21.572607
v 0.758003 75.554115 -18.579882
v -4.149557 75.554115 -14.552353
v -8.177088 75.554115 -9.644791
v -11.169811 75.554115 -4.045797
v -13.012722 75.554115 2.029464
v -13.634998 75.554115 8.347526
v -13.012724 75.554115 14.665587
v -11.169813 75.554115 20.740849
v -8.177088 75.554115 26.339848
v -4.149557 75.554115 31.247410
v 0.758005 75.554115 35.274940
v 6.357003 75.554115 38.267670
v 12.432269 75.554115 40.110577
v 18.750336 75.554115 40.732849
v 25.068401 75.554115 40.110573
v 31.143665 75.554115 38.267658
v 36.742661 75.554115 35.274929
v 41.650223 75.554115 31.247396
v 45.677750 75.554115 26.339830
v 48.670471 75.554115 20.740829
v 50.513374 75.554115 14.665564
v 51.135647 75.554115 8.347497
v 50.513367 75.554115 2.029432
v 48.670448 75.554115 -4.045832
v 45.677711 75.554115 -9.644827
v 41.650177 75.554115 -14.552382
v 36.742607 75.554115 -18.579908
v 31.143608 75.554115 -21.572626
v 25.068338 75.554115 -23.415527
v 18.750324 76.622025 -24.037794
v 12.432261 76.622025 -23.415518
v 6.356997 76.622025 -21.572607
v 0.758003 76.622025 -18.579882
v -4.149557 76.622025 -14.552353
v -8.177088 76.622025 -9.644791
v -11.169811 76.622025 -4.045797
v -13.012722 76.622025 2.029464
v -13.634998 76.622025 8.347526
v -13.012724 76.622025 14.665587
v -11.169813 76.622025 20.740849
v -8.177088 76.622025 26.339848
v -4.149557 76.622025 31.247410
v 0.758005 76.622025 35.274940
v 6.357003 76.622025 38.267670
v 12.432269 76.622025 40.110577
v 18.750336 76.622025 40.732849
v 25.068401 76.622025 40.110573
v 31.143665 76.622025 38.267658
v 36.742661 76.622025 35.274929
v 41.650223 76.622025 31.247396
v 45.677750 76.622025 26.339830
v 48.670471 76.622025 20.740829
v 50.513374 76.622025 14.665564
v 51.135647 76.622025 8.347497
v 50.513367 76.622025 2.029432
v 48.670448 76.622025 -4.045832
v 45.677711 76.622025 -9.644827
v 41.650177 76.622025 -14.552382
v 36.742607 76.622025 -18.579908
v 31.143608 76.622025 -21.572626
v 25.068338 76.622025 -23.415527
v 18.750324 78.046074 -27.585821
v 11.740075 78.046074 -26.895372
v 4.999225 78.046074 -24.850557
v -1.213179 78.046074 -21.529963
v -6.658394 78.046074 -17.061190
v -11.127169 78.046074 -11.615973
v -14.447765 78.046074 -5.403570
v -16.492580 78.046074 1.337279
v -17.183029 78.046074 8.347527
v -16.492584 78.046074 15.357775
v -14.447769 78.046074 22.098623
v -11.127169 78.046074 28.311031
v -6.658394 78.046074 33.756248
v -1.213177 78.046074 38.225021
v 4.999230 78.046074 41.545624
v 11.740084 78.046074 43.590439
v 18.750336 78.046074 44.280884
v 25.760590 78.046074 43.590431
v 32.501442 78.046074 41.545616
v 38.713844 78.046074 38.225010
v 44.159058 78.046074 33.756233
v 48.627831 78.046074 28.311010
v 51.948425 78.046074 22.098602
v 53.993237 78.046074 15.357748
v 54.683678 78.046074 8.347495
v 53.993225 78.046074 1.337243
v 51.948399 78.046074 -5.403606
v 48.627792 78.046074 -11.616011
v 44.159012 78.046074 -17.061220
v 38.713783 78.046074 -21.529989
v 32.501373 78.046074 -24.850580
v 25.760521 78.046074 -26.895384
v 18.750324 76.978043 -22.586954
v 12.715305 76.978043 -21.992556
v 6.912210 76.978043 -20.232206
v 1.564047 76.978043 -17.373554
v -3.123657 76.978043 -13.526455
v -6.970758 76.978043 -8.838749
v -9.829411 76.978043 -3.490586
v -11.589760 76.978043 2.312509
v -12.184160 76.978043 8.347526
v -11.589764 76.978043 14.382543
v -9.829414 76.978043 20.185638
v -6.970758 76.978043 25.533804
v -3.123657 76.978043 30.221510
v 1.564049 76.978043 34.068611
v 6.912214 76.978043 36.927269
v 12.715313 76.978043 38.687614
v 18.750334 76.978043 39.282009
v 24.785355 76.978043 38.687611
v 30.588451 76.978043 36.927258
v 35.936615 76.978043 34.068600
v 40.624321 76.978043 30.221497
v 44.471416 76.978043 25.533789
v 47.330070 76.978043 20.185619
v 49.090416 76.978043 14.382519
v 49.684807 76.978043 8.347498
v 49.090405 76.978043 2.312478
v 47.330048 76.978043 -3.490618
v 44.471382 76.978043 -8.838781
v 40.624279 76.978043 -13.526480
v 35.936569 76.978043 -17.373579
v 30.588396 76.978043 -20.232225
v 24.785295 76.978043 -21.992565
vn 0.000000 -1.000000 0.000000
vn 0.357900 -0.927400 0.108600
vn 0.881900 0.000000 0.471400
vn -0.881900 0.000000 0.471400
vn 0.290300 0.000000 -0.956900
vn 0.634400 0.000000 0.773000
vn -0.995200 0.000000 0.098000
vn 0.634400 0.000000 -0.773000
vn 0.290300 0.000000 0.956900
vn -0.956900 0.000000 -0.290300
vn 0.881900 0.000000 -0.471400
vn -0.773000 0.000000 -0.634400
vn -0.098000 0.000000 0.995200
vn 0.995200 0.000000 -0.098000
vn -0.471400 0.000000 -0.881900
vn -0.471400 0.000000 0.881900
vn 0.956900 0.000000 0.290300
vn -0.098000 0.000000 -0.995200
vn -0.773000 0.000000 0.634400
vn 0.098000 0.000000 -0.995200
vn 0.773000 0.000000 0.634400
vn -0.956900 0.000000 0.290300
vn 0.471400 0.000000 -0.881900
vn 0.471400 0.000000 0.881900
vn -0.995200 0.000000 -0.098000
vn 0.773000 0.000000 -0.634400
vn 0.098000 0.000000 0.995200
vn -0.881900 0.000000 -0.471400
vn 0.956900 0.000000 -0.290300
vn -0.634400 0.000000 -0.773000
vn -0.290300 0.000000 0.956900
vn 0.995200 0.000000 0.098000
vn -0.290300 0.000000 -0.956900
vn -0.634400 0.000000 0.773000
vn -0.208900 0.977700 0.020600
vn -0.036700 -0.927400 -0.372200
vn -0.289100 -0.927400 0.237300
vn 0.036700 -0.927400 -0.372200
vn 0.289100 -0.927400 0.237300
vn -0.357900 -0.927400 0.108600
vn 0.176300 -0.927400 -0.329900
vn 0.176300 -0.927400 0.329900
vn -0.372200 -0.927400 -0.036700
vn 0.289100 -0.927400 -0.237300
vn 0.036700 -0.927400 0.372200
vn -0.329900 -0.927400 -0.176300
vn 0.357900 -0.927400 -0.108600
vn -0.237300 -0.927400 -0.289100
vn -0.108600 -0.927400 0.357900
vn 0.372200 -0.927400 0.036700
vn -0.108600 -0.927400 -0.357900
vn -0.237300 -0.927400 0.289100
vn 0.329900 -0.927400 0.176300
vn -0.329900 -0.927400 0.176300
vn 0.108600 -0.927400 -0.357900
vn 0.237300 -0.927400 0.289100
vn -0.372200 -0.927400 0.036700
vn 0.237300 -0.927400 -0.289100
vn 0.108600 -0.927400 0.357900
vn -0.357900 -0.927400 -0.108600
vn 0.329900 -0.927400 -0.176300
vn -0.289100 -0.927400 -0.237300
vn -0.036700 -0.927400 0.372200
vn 0.372200 -0.927400 -0.036700
vn -0.176300 -0.927400 -0.329900
vn -0.176300 -0.927400 0.329900
vn 0.000000 1.000000 0.000000
vn 0.098900 0.977700 0.185100
vn 0.098900 0.977700 -0.185100
vn -0.200900 0.977700 -0.060900
vn 0.020600 0.977700 0.208900
vn 0.162300 0.977700 -0.133200
vn -0.020600 0.977700 0.208900
vn -0.162300 0.977700 -0.133200
vn 0.200900 0.977700 -0.060900
vn -0.098900 0.977700 0.185100
vn -0.098900 0.977700 -0.185100
vn 0.208900 0.977700 0.020600
vn -0.162300 0.977700 0.133200
vn -0.020600 0.977700 -0.208900
vn 0.185100 0.977700 0.098900
vn -0.200900 0.977700 0.060900
vn 0.133200 0.977700 0.162300
vn 0.060900 0.977700 -0.200900
vn -0.208900 0.977700 -0.020600
vn 0.060900 0.977700 0.200900
vn 0.133200 0.977700 -0.162300
vn -0.185100 0.977700 -0.098900
vn 0.185100 0.977700 -0.098900
vn -0.060900 0.977700 0.200900
vn -0.133200 0.977700 -0.162300
vn 0.208900 0.977700 -0.020600
vn -0.133200 0.977700 0.162300
vn -0.060900 0.977700 -0.200900
vn 0.200900 0.977700 0.060900
vn -0.185100 0.977700 0.098900
vn 0.162300 0.977700 0.133200
vn 0.020600 0.977700 -0.208900
s off
f 2//1 28//1 24//1
f 55//2 56//2 88//2
f 23//3 55//3 54//3
f 12//4 44//4 43//4
f 32//5 64//5 63//5
f 21//6 53//6 52//6
f 10//7 42//7 41//7
f 30//8 62//8 61//8
f 19//9 51//9 50//9
f 8//10 40//10 39//10
f 28//11 60//11 59//11
f 6//12 38//12 37//12
f 17//13 49//13 48//13
f 26//14 58//14 57//14
f 4//15 36//15 35//15
f 15//16 47//16 46//16
f 24//17 56//17 55//17
f 2//18 34//18 33//18
f 13//19 45//19 44//19
f 1//20 33//20 64//20
f 22//21 54//21 53//21
f 11//22 43//22 42//22
f 31//23 63//23 62//23
f 20//24 52//24 51//24
f 9//25 41//25 40//25
f 29//26 61//26 60//26
f 18//27 50//27 49//27
f 7//28 39//28 38//28
f 27//29 59//29 58//29
f 5//30 37//30 36//30
f 16//31 48//31 47//31
f 25//32 57//32 56//32
f 3//33 35//33 34//33
f 14//34 46//34 45//34
f 90//35 122//35 121//35
f 34//36 66//36 65//36
f 44//37 45//37 77//37
f 64//38 33//38 65//38
f 53//39 54//39 86//39
f 43//40 75//40 74//40
f 63//41 95//41 94//41
f 52//42 84//42 83//42
f 41//43 73//43 72//43
f 60//44 61//44 93//44
f 50//45 82//45 81//45
f 38//46 39//46 71//46
f 58//47 59//47 91//47
f 37//48 69//48 68//48
f 48//49 80//49 79//49
f 56//50 57//50 89//50
f 35//51 67//51 66//51
f 45//52 46//52 78//52
f 54//53 55//53 87//53
f 44//54 76//54 75//54
f 64//55 96//55 95//55
f 53//56 85//56 84//56
f 42//57 74//57 73//57
f 61//58 62//58 94//58
f 51//59 83//59 82//59
f 40//60 72//60 71//60
f 60//61 92//61 91//61
f 37//62 38//62 70//62
f 48//63 49//63 81//63
f 58//64 90//64 89//64
f 36//65 68//65 67//65
f 47//66 79//66 78//66
f 98//67 106//67 114//67
f 67//68 68//68 100//68
f 79//69 111//69 110//69
f 88//70 120//70 119//70
f 66//71 98//71 97//71
f 76//72 77//72 109//72
f 65//73 97//73 128//73
f 85//74 86//74 118//74
f 75//75 107//75 106//75
f 94//76 95//76 127//76
f 83//77 84//77 116//77
f 72//78 73//78 105//78
f 93//79 125//79 124//79
f 82//80 114//80 113//80
f 71//81 103//81 102//81
f 91//82 123//82 122//82
f 69//83 101//83 100//83
f 80//84 112//84 111//84
f 89//85 121//85 120//85
f 66//86 67//86 99//86
f 78//87 110//87 109//87
f 87//88 119//88 118//88
f 76//89 108//89 107//89
f 96//90 128//90 127//90
f 85//91 117//91 116//91
f 73//92 74//92 106//92
f 93//93 94//93 126//93
f 83//94 115//94 114//94
f 71//95 72//95 104//95
f 92//96 124//96 123//96
f 69//97 70//97 102//97
f 81//98 113//98 112//98
f 4//1 3//1 2//1
f 6//1 5//1 4//1
f 17//1 7//1 6//1
f 10//1 9//1 8//1
f 14//1 11//1 10//1
f 14//1 13//1 12//1
f 16//1 15//1 14//1
f 10//1 17//1 16//1
f 24//1 19//1 18//1
f 22//1 21//1 20//1
f 24//1 23//1 22//1
f 26//1 25//1 24//1
f 28//1 27//1 26//1
f 30//1 29//1 28//1
f 32//1 31//1 30//1
f 2//1 1//1 32//1
f 18//1 4//1 2//1
f 10//1 8//1 7//1
f 14//1 12//1 11//1
f 10//1 16//1 14//1
f 24//1 20//1 19//1
f 20//1 24//1 22//1
f 24//1 28//1 26//1
f 2//1 32//1 30//1
f 18//1 6//1 4//1
f 7//1 17//1 10//1
f 2//1 24//1 18//1
f 2//1 30//1 28//1
f 18//1 17//1 6//1
f 87//2 55//2 88//2
f 22//3 23//3 54//3
f 11//4 12//4 43//4
f 31//5 32//5 63//5
f 20//6 21//6 52//6
f 9//7 10//7 41//7
f 29//8 30//8 61//8
f 18//9 19//9 50//9
f 7//10 8//10 39//10
f 27//11 28//11 59//11
f 5//12 6//12 37//12
f 16//13 17//13 48//13
f 25//14 26//14 57//14
f 3//15 4//15 35//15
f 14//16 15//16 46//16
f 23//17 24//17 55//17
f 1//18 2//18 33//18
f 12//19 13//19 44//19
f 32//20 1//20 64//20
f 21//21 22//21 53//21
f 10//22 11//22 42//22
f 30//23 31//23 62//23
f 19//24 20//24 51//24
f 8//25 9//25 40//25
f 28//26 29//26 60//26
f 17//27 18//27 49//27
f 6//28 7//28 38//28
f 26//29 27//29 58//29
f 4//30 5//30 36//30
f 15//31 16//31 47//31
f 24//32 25//32 56//32
f 2//33 3//33 34//33
f 13//34 14//34 45//34
f 89//35 90//35 121//35
f 33//36 34//36 65//36
f 76//37 44//37 77//37
f 96//38 64//38 65//38
f 85//39 53//39 86//39
f 42//40 43//40 74//40
f 62//41 63//41 94//41
f 51//42 52//42 83//42
f 40//43 41//43 72//43
f 92//44 60//44 93//44
f 49//45 50//45 81//45
f 70//46 38//46 71//46
f 90//47 58//47 91//47
f 36//48 37//48 68//48
f 47//49 48//49 79//49
f 88//50 56//50 89//50
f 34//51 35//51 66//51
f 77//52 45//52 78//52
f 86//53 54//53 87//53
f 43//54 44//54 75//54
f 63//55 64//55 95//55
f 52//56 53//56 84//56
f 41//57 42//57 73//57
f 93//58 61//58 94//58
f 50//59 51//59 82//59
f 39//60 40//60 71//60
f 59//61 60//61 91//61
f 69//62 37//62 70//62
f 80//63 48//63 81//63
f 57//64 58//64 89//64
f 35//65 36//65 67//65
f 46//66 47//66 78//66
f 128//67 97//67 98//67
f 125//67 127//67 128//67
f 127//67 125//67 126//67
f 122//67 123//67 124//67
f 124//67 121//67 122//67
f 118//67 119//67 120//67
f 116//67 117//67 118//67
f 114//67 115//67 116//67
f 108//67 113//67 114//67
f 110//67 111//67 112//67
f 108//67 109//67 110//67
f 106//67 107//67 108//67
f 104//67 105//67 106//67
f 102//67 103//67 104//67
f 100//67 101//67 102//67
f 98//67 99//67 100//67
f 124//67 128//67 98//67
f 128//67 124//67 125//67
f 118//67 120//67 121//67
f 124//67 116//67 118//67
f 110//67 112//67 113//67
f 113//67 108//67 110//67
f 98//67 104//67 106//67
f 98//67 100//67 102//67
f 116//67 124//67 98//67
f 124//67 118//67 121//67
f 106//67 108//67 114//67
f 98//67 102//67 104//67
f 114//67 116//67 98//67
f 99//68 67//68 100//68
f 78//69 79//69 110//69
f 87//70 88//70 119//70
f 65//71 66//71 97//71
f 108//72 76//72 109//72
f 96//73 65//73 128//73
f 117//74 85//74 118//74
f 74//75 75//75 106//75
f 126//76 94//76 127//76
f 115//77 83//77 116//77
f 104//78 72//78 105//78
f 92//79 93//79 124//79
f 81//80 82//80 113//80
f 70//81 71//81 102//81
f 90//82 91//82 122//82
f 68//83 69//83 100//83
f 79//84 80//84 111//84
f 88//85 89//85 120//85
f 98//86 66//86 99//86
f 77//87 78//87 109//87
f 86//88 87//88 118//88
f 75//89 76//89 107//89
f 95//90 96//90 127//90
f 84//91 85//91 116//91
f 105//92 73//92 106//92
f 125//93 93//93 126//93
f 82//94 83//94 114//94
f 103//95 71//95 104//95
f 91//96 92//96 123//96
f 101//97 69//97 102//97
f 80//98 81//98 112//98
